# xmcd CD database file
#
# Track frame offsets:
#	150
#	15540
#	33547
#	50647
#	65320
#	80922
#	100682
#	117310
#	136502
#	150685
#	167037
#	183607
#	196620
#	215825
#	236850
#	250595
#
# Disc length: 3517 seconds
#
# Revision: 0
# Processed by: cddbd v1.5.2PL0 Copyright (c) Steve Scherf et al.
# Submitted via: cdripper 1,0,39,0213
#
DISCID=d90dbb10
DTITLE=Adventures In Music - Country Folk
DYEAR=1983
DGENRE=Country
TTITLE0=Ships in the Forest - Kerry Kearney
TTITLE1=Open Lines and Signals - Bernice Lewis
TTITLE2=Crossing Over - Peg Loughran
TTITLE3=I'm Walkin' - Bobby Petersen
TTITLE4=Texas Music - Ronny Spears and Honky Tonk Hardcore
TTITLE5=Dangerous Kingdom of the Heart - John Coster and Susannah Keith
TTITLE6=This Time Around - Alan  Redstone
TTITLE7=Bringin' Up the Sun - Tom Intondi
TTITLE8=If the Good Lord is Willing - Jerry Hanlon
TTITLE9=Wild and Lazy - Ralph Litwin
TTITLE10=Excuse Me Lady - Rich Wilson
TTITLE11=Places and People - Tom Hynes
TTITLE12=Places and People - Tom Hynes
TTITLE13=Change of Direction - Black Diamond
TTITLE14=Change of Direction - Black Diamond
TTITLE15=Johnny B - John Butterworth
EXTD=YEAR: 1983
EXTT0=
EXTT1=
EXTT2=
EXTT3=
EXTT4=
EXTT5=
EXTT6=
EXTT7=
EXTT8=
EXTT9=
EXTT10=
EXTT11=
EXTT12=
EXTT13=
EXTT14=
EXTT15=
PLAYORDER=
